<svg width="35" height="34" viewBox="0 0 35 34" fill="none" xmlns="http://www.w3.org/2000/svg">
<path d="M24.9744 0.0546875H9.76461C4.59943 0.0546875 0.397217 4.2571 0.397217 9.42228V24.6321C0.397217 29.7975 4.59943 33.9997 9.76461 33.9997H24.9744C30.14 33.9997 34.3422 29.7973 34.3422 24.6321V9.42228C34.3424 4.2571 30.14 0.0546875 24.9744 0.0546875ZM31.3307 24.6321C31.3307 28.1368 28.4793 30.9879 24.9746 30.9879H9.76461C6.26012 30.9881 3.40898 28.1368 3.40898 24.6321V9.42228C3.40898 5.91779 6.26012 3.06645 9.76461 3.06645H24.9744C28.4791 3.06645 31.3305 5.91779 31.3305 9.42228V24.6321H31.3307Z" fill="white"/>
</svg>
