<svg width="65" height="63" viewBox="0 0 65 63" fill="none" xmlns="http://www.w3.org/2000/svg">
<g clip-path="url(#clip0)">
<path d="M3.67265 61.613C3.13535 62.3189 2.06076 62.4954 1.34437 61.966C0.627978 61.4365 0.448879 60.3777 0.986174 59.6718C3.67265 56.0542 6.26957 52.3482 9.13514 48.6423C10.2097 47.2306 11.2843 45.8188 12.3589 44.4952L11.8216 43.9658C10.3888 42.554 8.3292 40.6129 6.62777 37.9658C5.55318 36.2893 4.74724 34.4363 4.20994 32.4069C3.7622 30.554 3.5831 28.6128 3.85175 26.6716C4.12039 24.5539 4.92633 22.348 6.26957 20.2303C7.52326 18.2891 9.22469 16.348 11.4634 14.5832C13.7021 12.7303 16.4782 10.9656 19.6124 9.46555C22.6571 7.96554 26.0599 6.642 29.6419 5.58317C36.0894 3.73021 43.0743 2.75962 48.3577 2.14197L49.7009 1.96549C52.3874 1.61255 54.5365 1.25961 56.238 1.08313C57.6708 0.818426 59.1035 0.641954 60.0886 0.465482H60.1781C61.1632 0.28901 61.79 0.200774 62.3273 0.28901C64.0288 0.465482 64.3869 1.25961 64.2078 2.93609C64.2078 3.28903 64.0288 3.73021 63.9392 4.25963C63.6706 5.49493 63.2228 7.43612 62.9542 10.6126C62.8646 11.495 62.7751 12.8185 62.6855 14.2303C62.4169 18.5539 61.9691 23.848 60.8945 28.8775C60.1781 32.1422 59.1035 35.2305 57.8499 38.054C56.5066 41.054 54.8947 43.8776 53.1038 46.26C51.4023 48.5541 49.6113 50.4953 47.7308 52.0835C45.7607 53.76 43.7011 54.9953 41.5519 55.9659C39.4027 56.8483 37.2536 57.4659 35.0148 57.5542C32.8657 57.7306 30.6269 57.4659 28.4778 56.9365C26.5972 56.4071 24.8062 55.613 23.1048 54.7306C20.9556 53.5835 19.0751 52.26 17.8214 51.2012C16.5677 50.2306 15.8513 49.4365 15.314 48.7306C14.9558 48.2894 14.6872 47.9364 14.5081 47.5835C13.6126 48.6423 12.8067 49.7894 11.9112 50.9365C9.40379 54.2012 6.62777 58.0836 3.85175 61.966L3.67265 61.613ZM14.4185 41.8482C15.2245 40.8776 16.12 39.907 16.9259 38.9364C19.4333 36.1128 21.8511 33.7304 24.1794 31.701C26.4181 29.6716 28.5673 27.9951 30.6269 26.4951C32.597 24.9951 34.4775 23.6715 36.2685 22.5245C38.1491 21.2892 39.7609 20.1421 41.4624 19.0833C42.2683 18.5539 43.2534 18.8186 43.7907 19.5245C44.3279 20.3186 44.0593 21.2892 43.3429 21.8186C41.6415 22.9657 39.94 24.0245 38.2386 25.1716C36.5372 26.3186 34.7462 27.6422 32.7761 29.0539C30.806 30.4657 28.7464 32.1422 26.5972 34.0834C24.3585 36.0246 22.0302 38.3187 19.6124 41.054C18.7169 42.1129 17.7319 43.1717 16.8364 44.3188C16.9259 44.4952 17.105 44.7599 17.1946 45.0247V45.1129C17.3737 45.4658 17.5528 45.8188 18.0005 46.26C18.4483 46.7894 19.0751 47.407 20.0601 48.2011C21.2243 49.1717 22.9257 50.3188 24.8062 51.3776C26.239 52.1718 27.8509 52.8777 29.4628 53.3188C31.2538 53.8483 33.0448 54.0247 34.8357 53.8483C36.7163 53.6718 38.5073 53.2306 40.2982 52.5247C42.0892 51.7306 43.9698 50.6718 45.6712 49.1717C47.3726 47.76 48.9845 45.9952 50.5068 43.9658C52.1187 41.7599 53.6411 39.2011 54.8947 36.3775C56.0589 33.7304 57.1335 30.8187 57.7603 27.8186C58.8349 23.0539 59.1931 17.848 59.5513 13.7009C59.6408 12.4656 59.7304 11.2303 59.8199 9.99497C60.0886 6.73024 60.5363 4.70081 60.805 3.46551C59.999 3.64198 58.8349 3.81845 56.9544 4.08316C55.1634 4.34787 53.0142 4.70081 50.3277 5.05375L48.9845 5.23022C43.7907 5.93611 36.9849 6.81847 30.806 8.58319C27.4032 9.55379 24.2689 10.7891 21.3138 12.2009C18.4482 13.6126 15.8513 15.2009 13.7917 16.8774C11.9112 18.4656 10.3888 20.1421 9.31424 21.7304C8.23965 23.4068 7.61281 25.1716 7.34416 26.848C7.16506 28.3481 7.25461 29.9363 7.61281 31.3481C8.06055 33.0246 8.6874 34.6128 9.58289 35.9363C11.0157 38.2305 12.8962 40.0834 14.2394 41.3187L14.5976 41.6717L14.4185 41.8482Z" fill="black"/>
</g>
<defs>
<clipPath id="clip0">
<rect width="63.6694" height="62.343" fill="white" transform="translate(0.62793)"/>
</clipPath>
</defs>
</svg>
