<svg width="25" height="25" viewBox="0 0 25 25" fill="none" xmlns="http://www.w3.org/2000/svg">
<g clip-path="url(#clip0)">
<path d="M12.5002 25C11.9545 25 11.4658 24.717 11.1931 24.2429C11.1902 24.238 11.1874 24.2329 11.1846 24.2279L4.9853 12.8809C3.50552 10.1724 3.54795 6.9575 5.09883 4.28113C6.61607 1.66277 9.31099 0.0631104 12.3078 0.00197754C12.4358 -0.00065918 12.5645 -0.00065918 12.6924 0.00197754C15.6893 0.0631104 18.3842 1.66277 19.9015 4.28113C21.4523 6.9575 21.4948 10.1723 20.015 12.8809L13.8157 24.2279C13.8129 24.2329 13.8101 24.238 13.8072 24.2429C13.5345 24.717 13.0459 25 12.5002 25ZM12.5001 1.56252C12.4465 1.56252 12.393 1.56306 12.3396 1.56414C9.89331 1.61404 7.69185 2.92258 6.45069 5.06453C5.17593 7.26448 5.14068 9.90642 6.35645 12.1317L12.5001 23.3768L18.6438 12.1318C19.8596 9.90642 19.8244 7.26448 18.5495 5.06453C17.3084 2.92263 15.1069 1.61404 12.6606 1.56414C12.6074 1.56306 12.5538 1.56252 12.5001 1.56252Z" fill="black"/>
<path d="M12.5 11.3281C10.5615 11.3281 8.98438 9.75103 8.98438 7.8125C8.98438 5.87397 10.5615 4.29688 12.5 4.29688C14.4385 4.29688 16.0156 5.87397 16.0156 7.8125C16.0156 9.75103 14.4386 11.3281 12.5 11.3281ZM12.5 5.85938C11.423 5.85938 10.5469 6.73555 10.5469 7.8125C10.5469 8.88945 11.423 9.76563 12.5 9.76563C13.577 9.76563 14.4531 8.88945 14.4531 7.8125C14.4531 6.73555 13.577 5.85938 12.5 5.85938Z" fill="black"/>
</g>
<defs>
<clipPath id="clip0">
<rect width="25" height="25" fill="white"/>
</clipPath>
</defs>
</svg>
