<svg width="53" height="13" viewBox="0 0 53 13" fill="none" xmlns="http://www.w3.org/2000/svg">
<rect width="48.0467" height="1.98131" transform="matrix(-1 0 0 1 48.0469 5.44849)" fill="black"/>
<g clip-path="url(#clip0)">
<path d="M50.1384 5.93673L44.4073 0.20574C44.2748 0.0730823 44.0978 0 43.9091 0C43.7205 0 43.5435 0.0730823 43.411 0.20574L42.9889 0.627691C42.7143 0.90264 42.7143 1.34951 42.9889 1.62404L47.8015 6.43658L42.9836 11.2545C42.851 11.3871 42.7778 11.564 42.7778 11.7525C42.7778 11.9413 42.851 12.1182 42.9836 12.2509L43.4056 12.6728C43.5383 12.8054 43.7151 12.8785 43.9038 12.8785C44.0925 12.8785 44.2694 12.8054 44.402 12.6728L50.1384 6.93654C50.2713 6.80346 50.3443 6.62578 50.3438 6.4369C50.3443 6.24728 50.2713 6.06971 50.1384 5.93673Z" fill="black"/>
</g>
<defs>
<clipPath id="clip0">
<rect width="12.8785" height="12.8785" fill="white" transform="translate(40.1216)"/>
</clipPath>
</defs>
</svg>
