<svg width="53" height="13" viewBox="0 0 53 13" fill="none" xmlns="http://www.w3.org/2000/svg">
<rect x="4.95337" y="5.44861" width="48.0467" height="1.98131" fill="black"/>
<g clip-path="url(#clip0)">
<path d="M2.86159 5.93673L8.59268 0.20574C8.72524 0.0730823 8.90218 0 9.09086 0C9.27953 0 9.45648 0.0730823 9.58903 0.20574L10.0111 0.627691C10.2857 0.90264 10.2857 1.34951 10.0111 1.62404L5.19855 6.43658L10.0164 11.2545C10.149 11.3871 10.2222 11.564 10.2222 11.7525C10.2222 11.9413 10.149 12.1182 10.0164 12.2509L9.59437 12.6728C9.46171 12.8054 9.28487 12.8785 9.0962 12.8785C8.90752 12.8785 8.73058 12.8054 8.59802 12.6728L2.86159 6.93654C2.72872 6.80346 2.65574 6.62578 2.65616 6.4369C2.65574 6.24728 2.72872 6.06971 2.86159 5.93673Z" fill="black"/>
</g>
<defs>
<clipPath id="clip0">
<rect width="12.8785" height="12.8785" fill="white" transform="matrix(-1 0 0 1 12.8784 0)"/>
</clipPath>
</defs>
</svg>
