<svg width="53" height="13" viewBox="0 0 53 13" fill="none" xmlns="http://www.w3.org/2000/svg">
<rect width="48.0467" height="1.98131" transform="matrix(-1 0 0 1 48.0468 5.44849)" fill="black"/>
<g clip-path="url(#clip0)">
<path d="M50.1383 5.93673L44.4072 0.20574C44.2747 0.0730823 44.0977 0 43.9091 0C43.7204 0 43.5434 0.0730823 43.4109 0.20574L42.9888 0.627691C42.7142 0.90264 42.7142 1.34951 42.9888 1.62404L47.8014 6.43658L42.9835 11.2545C42.8509 11.3871 42.7778 11.564 42.7778 11.7525C42.7778 11.9413 42.8509 12.1182 42.9835 12.2509L43.4055 12.6728C43.5382 12.8054 43.715 12.8785 43.9037 12.8785C44.0924 12.8785 44.2693 12.8054 44.4019 12.6728L50.1383 6.93654C50.2712 6.80346 50.3442 6.62578 50.3438 6.4369C50.3442 6.24728 50.2712 6.06971 50.1383 5.93673Z" fill="black"/>
</g>
<defs>
<clipPath id="clip0">
<rect width="12.8785" height="12.8785" fill="white" transform="translate(40.1215)"/>
</clipPath>
</defs>
</svg>
