<svg width="22" height="22" viewBox="0 0 22 22" fill="none" xmlns="http://www.w3.org/2000/svg">
<path d="M15.8118 22C15.1016 22 14.3975 21.8745 13.7089 21.6243C10.6755 20.5224 7.8599 18.7276 5.56632 16.4341C3.27275 14.1406 1.47802 11.3249 0.376127 8.29151C0.0220361 7.31668 -0.0824596 6.31039 0.0656476 5.30049C0.204388 4.35453 0.57081 3.4362 1.12534 2.64475C1.68232 1.84981 2.42488 1.18864 3.2727 0.732716C4.17682 0.246545 5.16364 0 6.20584 0C6.52999 0 6.81013 0.226479 6.87806 0.543404L7.95714 5.57909C8.00599 5.80712 7.93591 6.04438 7.77105 6.20929L5.9272 8.05309C7.66659 11.5113 10.489 14.3337 13.9473 16.0731L15.7911 14.2293C15.956 14.0644 16.1933 13.9944 16.4212 14.0432L21.4569 15.1223C21.7739 15.1902 22.0003 15.4704 22.0003 15.7945C22.0003 16.8367 21.7538 17.8236 21.2676 18.7277C20.8117 19.5755 20.1505 20.3181 19.3555 20.875C18.5641 21.4296 17.6458 21.796 16.6998 21.9347C16.4034 21.9783 16.107 22 15.8118 22ZM5.65656 1.40502C4.28183 1.55678 3.06165 2.27734 2.25138 3.43379C1.34022 4.73419 1.12775 6.33363 1.66845 7.8221C3.78689 13.6538 8.34659 18.2135 14.1783 20.332C15.6667 20.8727 17.2662 20.6602 18.5666 19.749C19.7231 18.9388 20.4436 17.7186 20.5954 16.3439L16.4989 15.4661L14.5733 17.3917C14.3684 17.5966 14.057 17.651 13.7948 17.5278C9.70482 15.6063 6.39413 12.2956 4.47264 8.20558C4.34946 7.94335 4.40385 7.63201 4.60876 7.42714L6.53437 5.50154L5.65656 1.40502Z" fill="black"/>
</svg>
