<svg width="66" height="66" viewBox="0 0 66 66" fill="none" xmlns="http://www.w3.org/2000/svg">
<g clip-path="url(#clip0)">
<path d="M48.4343 42.6021C51.6821 38.167 53.6248 32.7192 53.6248 26.8134C53.6248 12.0295 41.5962 0.000976562 26.8123 0.000976562C12.0284 0.000976562 0 12.0295 0 26.8134C0 41.5973 12.0286 53.6259 26.8124 53.6259C32.7182 53.6259 38.1665 51.6829 42.6016 48.4352L60.167 66.0006L66 60.1676C66 60.1675 48.4343 42.6021 48.4343 42.6021ZM26.8124 45.3758C16.5765 45.3758 8.25003 37.0494 8.25003 26.8134C8.25003 16.5775 16.5765 8.25101 26.8124 8.25101C37.0484 8.25101 45.3749 16.5775 45.3749 26.8134C45.3749 37.0494 37.0483 45.3758 26.8124 45.3758Z" fill="white" fill-opacity="0.6"/>
</g>
<defs>
<clipPath id="clip0">
<rect width="66" height="66" fill="white"/>
</clipPath>
</defs>
</svg>
