<svg width="68" height="56" viewBox="0 0 68 56" fill="none" xmlns="http://www.w3.org/2000/svg">
<g clip-path="url(#clip0)">
<path d="M10.5054 0.036377H58.3118H67.6007V2.46339H58.3118V15.693V18.12V33.7766V42.057C58.3118 45.0075 57.096 47.6724 55.102 49.6236C53.4971 51.194 51.4059 52.2885 49.0715 52.6217V55.7149H46.5912V52.7168H20.9615V55.7149H18.4812V52.6217C16.1468 52.2409 14.0556 51.194 12.4507 49.6236C10.4567 47.6724 9.2409 45.0075 9.2409 42.057V31.3496V18.12V15.693V2.46339H-0.0480347V0.036377H9.2409H10.5054V0.036377ZM25.4844 5.41388H42.0683V7.84089H25.4844V5.41388ZM25.4844 21.1657H42.0683V23.5927H25.4844V21.1657ZM25.4844 36.2988H42.0683V38.7258H25.4844V36.2988ZM55.8315 33.7766H11.7212V42.057C11.7212 44.3413 12.6939 46.3876 14.2015 47.9104C15.7578 49.4332 17.849 50.3374 20.1834 50.3374H47.3693C49.7037 50.3374 51.7949 49.3856 53.3512 47.9104C54.9075 46.3876 55.8315 44.3413 55.8315 42.057V33.7766ZM55.8315 18.12H11.7212V31.3496H55.8315V18.12ZM55.8315 2.46339H11.7212V15.693H55.8315V2.46339Z" fill="black"/>
</g>
<defs>
<clipPath id="clip0">
<rect width="67.6488" height="55.7107" fill="white" transform="translate(0 0.0205078)"/>
</clipPath>
</defs>
</svg>
