<svg width="25" height="25" viewBox="0 0 25 25" fill="none" xmlns="http://www.w3.org/2000/svg">
<g clip-path="url(#clip0)">
<path d="M0.432171 11.6625L6.54571 14.7094C6.78217 14.826 7.06134 14.8177 7.28738 14.6854L12.729 11.5219L9.4353 14.4406C9.26759 14.5896 9.17175 14.8021 9.17175 15.026V22.1354C9.17175 22.8854 10.129 23.201 10.578 22.6052L13.2207 19.0917L19.7561 22.8135C20.2145 23.0771 20.802 22.8125 20.9082 22.2885L24.9843 1.97604C25.1061 1.36562 24.4988 0.867703 23.9343 1.09479L0.496755 10.2354C-0.132412 10.4812 -0.173037 11.3615 0.432171 11.6625ZM23.1718 3.06979L19.5895 20.9208L13.3968 17.3937C13.0593 17.201 12.6249 17.2865 12.3853 17.6031L10.7343 19.7979V15.3771L19.6415 7.48541C20.3468 6.86145 19.5363 5.75208 18.7311 6.22499L6.86655 13.1229L2.70821 11.051L23.1718 3.06979Z" fill="black"/>
</g>
<defs>
<clipPath id="clip0">
<rect width="25" height="25" fill="white"/>
</clipPath>
</defs>
</svg>
