<svg width="72" height="61" viewBox="0 0 72 61" fill="none" xmlns="http://www.w3.org/2000/svg">
<path d="M1.52247 9.7068H19.1577V0.0360107H20.6802H52.7789V9.7068H71.9366V60.0057H52.7789H49.7339H22.2026H19.1577H0V9.7068H1.52247ZM7.61234 23.1595H14.5903V25.7527H7.61234V23.1595ZM7.61234 34.289H14.5903V36.8822H7.61234V34.289ZM7.61234 45.4185H14.5903V48.0118H7.61234V45.4185ZM57.3463 23.1595H64.3242V25.7527H57.3463V23.1595ZM57.3463 34.289H64.3242V36.8822H57.3463V34.289ZM57.3463 45.4185H64.3242V48.0118H57.3463V45.4185ZM26.4529 11.9759H45.4837V14.5692H26.4529V11.9759ZM26.4529 23.1054H45.4837V25.6987H26.4529V23.1054ZM26.4529 34.2349H45.4837V36.8282H26.4529V34.2349ZM26.4529 45.3644H45.4837V47.9577H26.4529V45.3644ZM52.7789 12.2461V57.3584H68.8916V12.2461H52.7789ZM22.2026 9.65277V57.3584H49.7339V9.65277V2.57527H22.2026V9.65277ZM19.1577 12.2461H3.04493V57.3584H19.1577V12.2461Z" fill="black"/>
</svg>
